<svg xmlns="http://www.w3.org/2000/svg" width="1546" height="186" viewBox="0 0 1546 186" fill="none">
<g opacity="0.95">
<mask id="path-1-outside-1_327_3" maskUnits="userSpaceOnUse" x="20" y="12" width="1506" height="163" fill="black">
<rect fill="white" x="20" y="12" width="1506" height="163"/>
<path d="M22 170.29V16.108H54.598V79.723H120.773V16.108H153.295V170.29H120.773V106.599H54.598V170.29H22Z"/>
<path d="M180.172 170.29V16.108H284.064V42.9844H212.77V79.723H278.719V106.599H212.77V143.413H284.365V170.29H180.172Z"/>
<path d="M336.556 170.29H301.624L354.85 16.108H396.858L450.009 170.29H415.077L376.456 51.3409H375.252L336.556 170.29ZM334.373 109.686H416.884V135.132H334.373V109.686Z"/>
<path d="M523.223 170.29H468.566V16.108H523.674C539.183 16.108 552.533 19.1946 563.726 25.3679C574.918 31.491 583.525 40.2992 589.548 51.7926C595.621 63.286 598.657 77.0379 598.657 93.0483C598.657 109.109 595.621 122.911 589.548 134.455C583.525 145.998 574.868 154.857 563.575 161.03C552.333 167.203 538.882 170.29 523.223 170.29ZM501.164 142.359H521.868C531.504 142.359 539.61 140.653 546.184 137.24C552.809 133.777 557.778 128.432 561.091 121.205C564.453 113.927 566.135 104.542 566.135 93.0483C566.135 81.6553 564.453 72.3452 561.091 65.1179C557.778 57.8906 552.834 52.5706 546.26 49.1577C539.685 45.7448 531.579 44.0384 521.943 44.0384H501.164V142.359Z"/>
<path d="M622.805 170.29V16.108H726.697V42.9844H655.403V79.723H721.352V106.599H655.403V143.413H726.998V170.29H622.805Z"/>
<path d="M752.613 170.29V16.108H813.443C825.087 16.108 835.024 18.1908 843.255 22.3565C851.537 26.4721 857.835 32.3191 862.152 39.8977C866.518 47.4261 868.701 56.2846 868.701 66.473C868.701 76.7117 866.493 85.5199 862.076 92.8977C857.66 100.225 851.261 105.847 842.879 109.761C834.547 113.676 824.459 115.634 812.615 115.634H771.886V89.4347H807.345C813.568 89.4347 818.738 88.5814 822.853 86.875C826.969 85.1686 830.03 82.6089 832.038 79.196C834.096 75.7831 835.125 71.5421 835.125 66.473C835.125 61.3537 834.096 57.0374 832.038 53.5242C830.03 50.0109 826.944 47.3509 822.778 45.544C818.663 43.687 813.468 42.7585 807.194 42.7585H785.211V170.29H752.613ZM835.878 100.125L874.197 170.29H838.211L800.72 100.125H835.878Z"/>
<path d="M940.805 170.29V16.108H973.403V143.413H1039.5V170.29H940.805Z"/>
<path d="M1196.77 93.1989C1196.77 110.012 1193.58 124.316 1187.21 136.111C1180.89 147.905 1172.25 156.914 1161.31 163.138C1150.42 169.311 1138.17 172.398 1124.57 172.398C1110.87 172.398 1098.58 169.286 1087.68 163.062C1076.79 156.839 1068.19 147.83 1061.86 136.036C1055.54 124.241 1052.38 109.962 1052.38 93.1989C1052.38 76.3854 1055.54 62.0814 1061.86 50.2869C1068.19 38.4924 1076.79 29.5085 1087.68 23.3352C1098.58 17.1117 1110.87 14 1124.57 14C1138.17 14 1150.42 17.1117 1161.31 23.3352C1172.25 29.5085 1180.89 38.4924 1187.21 50.2869C1193.58 62.0814 1196.77 76.3854 1196.77 93.1989ZM1163.72 93.1989C1163.72 82.3078 1162.09 73.1231 1158.83 65.6449C1155.62 58.1667 1151.07 52.4953 1145.2 48.6307C1139.33 44.7661 1132.45 42.8338 1124.57 42.8338C1116.69 42.8338 1109.82 44.7661 1103.95 48.6307C1098.07 52.4953 1093.51 58.1667 1090.24 65.6449C1087.03 73.1231 1085.43 82.3078 1085.43 93.1989C1085.43 104.09 1087.03 113.275 1090.24 120.753C1093.51 128.231 1098.07 133.902 1103.95 137.767C1109.82 141.632 1116.69 143.564 1124.57 143.564C1132.45 143.564 1139.33 141.632 1145.2 137.767C1151.07 133.902 1155.62 128.231 1158.83 120.753C1162.09 113.275 1163.72 104.09 1163.72 93.1989Z"/>
<path d="M1323.15 65.946C1322.1 62.2822 1320.62 59.045 1318.71 56.2344C1316.8 53.3736 1314.47 50.9645 1311.71 49.0071C1309 46.9995 1305.89 45.4688 1302.38 44.4148C1298.91 43.3608 1295.07 42.8338 1290.86 42.8338C1282.98 42.8338 1276.05 44.7912 1270.08 48.706C1264.16 52.6207 1259.54 58.3172 1256.23 65.7955C1252.91 73.2235 1251.26 82.3078 1251.26 93.0483C1251.26 103.789 1252.89 112.923 1256.15 120.452C1259.41 127.98 1264.03 133.727 1270 137.692C1275.98 141.607 1283.03 143.564 1291.16 143.564C1298.54 143.564 1304.83 142.259 1310.05 139.649C1315.32 136.989 1319.34 133.25 1322.1 128.432C1324.91 123.614 1326.32 117.917 1326.32 111.342L1332.94 112.321H1293.19V87.7784H1357.71V107.202C1357.71 120.753 1354.85 132.397 1349.13 142.134C1343.41 151.82 1335.53 159.298 1325.49 164.568C1315.45 169.788 1303.96 172.398 1291.01 172.398C1276.55 172.398 1263.85 169.211 1252.91 162.837C1241.97 156.412 1233.44 147.303 1227.32 135.509C1221.24 123.664 1218.21 109.611 1218.21 93.3494C1218.21 80.8523 1220.01 69.7102 1223.63 59.9233C1227.29 50.0862 1232.41 41.7547 1238.99 34.929C1245.56 28.1032 1253.21 22.9086 1261.95 19.3452C1270.68 15.7817 1280.14 14 1290.33 14C1299.06 14 1307.19 15.2798 1314.72 17.8395C1322.25 20.349 1328.93 23.9124 1334.75 28.5298C1340.62 33.1473 1345.41 38.643 1349.13 45.017C1352.84 51.3409 1355.22 58.3172 1356.28 65.946H1323.15Z"/>
<path d="M1523.88 93.1989C1523.88 110.012 1520.69 124.316 1514.32 136.111C1507.99 147.905 1499.36 156.914 1488.42 163.138C1477.53 169.311 1465.28 172.398 1451.68 172.398C1437.98 172.398 1425.68 169.286 1414.79 163.062C1403.9 156.839 1395.29 147.83 1388.97 136.036C1382.65 124.241 1379.49 109.962 1379.49 93.1989C1379.49 76.3854 1382.65 62.0814 1388.97 50.2869C1395.29 38.4924 1403.9 29.5085 1414.79 23.3352C1425.68 17.1117 1437.98 14 1451.68 14C1465.28 14 1477.53 17.1117 1488.42 23.3352C1499.36 29.5085 1507.99 38.4924 1514.32 50.2869C1520.69 62.0814 1523.88 76.3854 1523.88 93.1989ZM1490.83 93.1989C1490.83 82.3078 1489.2 73.1231 1485.94 65.6449C1482.72 58.1667 1478.18 52.4953 1472.31 48.6307C1466.44 44.7661 1459.56 42.8338 1451.68 42.8338C1443.8 42.8338 1436.93 44.7661 1431.05 48.6307C1425.18 52.4953 1420.62 58.1667 1417.35 65.6449C1414.14 73.1231 1412.53 82.3078 1412.53 93.1989C1412.53 104.09 1414.14 113.275 1417.35 120.753C1420.62 128.231 1425.18 133.902 1431.05 137.767C1436.93 141.632 1443.8 143.564 1451.68 143.564C1459.56 143.564 1466.44 141.632 1472.31 137.767C1478.18 133.902 1482.72 128.231 1485.94 120.753C1489.2 113.275 1490.83 104.09 1490.83 93.1989Z"/>
</mask>
<path d="M22 170.29V16.108H54.598V79.723H120.773V16.108H153.295V170.29H120.773V106.599H54.598V170.29H22Z" fill="white"/>
<path d="M180.172 170.29V16.108H284.064V42.9844H212.77V79.723H278.719V106.599H212.77V143.413H284.365V170.29H180.172Z" fill="white"/>
<path d="M336.556 170.29H301.624L354.85 16.108H396.858L450.009 170.29H415.077L376.456 51.3409H375.252L336.556 170.29ZM334.373 109.686H416.884V135.132H334.373V109.686Z" fill="white"/>
<path d="M523.223 170.29H468.566V16.108H523.674C539.183 16.108 552.533 19.1946 563.726 25.3679C574.918 31.491 583.525 40.2992 589.548 51.7926C595.621 63.286 598.657 77.0379 598.657 93.0483C598.657 109.109 595.621 122.911 589.548 134.455C583.525 145.998 574.868 154.857 563.575 161.03C552.333 167.203 538.882 170.29 523.223 170.29ZM501.164 142.359H521.868C531.504 142.359 539.61 140.653 546.184 137.24C552.809 133.777 557.778 128.432 561.091 121.205C564.453 113.927 566.135 104.542 566.135 93.0483C566.135 81.6553 564.453 72.3452 561.091 65.1179C557.778 57.8906 552.834 52.5706 546.26 49.1577C539.685 45.7448 531.579 44.0384 521.943 44.0384H501.164V142.359Z" fill="white"/>
<path d="M622.805 170.29V16.108H726.697V42.9844H655.403V79.723H721.352V106.599H655.403V143.413H726.998V170.29H622.805Z" fill="white"/>
<path d="M752.613 170.29V16.108H813.443C825.087 16.108 835.024 18.1908 843.255 22.3565C851.537 26.4721 857.835 32.3191 862.152 39.8977C866.518 47.4261 868.701 56.2846 868.701 66.473C868.701 76.7117 866.493 85.5199 862.076 92.8977C857.66 100.225 851.261 105.847 842.879 109.761C834.547 113.676 824.459 115.634 812.615 115.634H771.886V89.4347H807.345C813.568 89.4347 818.738 88.5814 822.853 86.875C826.969 85.1686 830.03 82.6089 832.038 79.196C834.096 75.7831 835.125 71.5421 835.125 66.473C835.125 61.3537 834.096 57.0374 832.038 53.5242C830.03 50.0109 826.944 47.3509 822.778 45.544C818.663 43.687 813.468 42.7585 807.194 42.7585H785.211V170.29H752.613ZM835.878 100.125L874.197 170.29H838.211L800.72 100.125H835.878Z" fill="white"/>
<path d="M940.805 170.29V16.108H973.403V143.413H1039.5V170.29H940.805Z" fill="white"/>
<path d="M1196.77 93.1989C1196.77 110.012 1193.58 124.316 1187.21 136.111C1180.89 147.905 1172.25 156.914 1161.31 163.138C1150.42 169.311 1138.17 172.398 1124.57 172.398C1110.87 172.398 1098.58 169.286 1087.68 163.062C1076.79 156.839 1068.19 147.83 1061.86 136.036C1055.54 124.241 1052.38 109.962 1052.38 93.1989C1052.38 76.3854 1055.54 62.0814 1061.86 50.2869C1068.19 38.4924 1076.79 29.5085 1087.68 23.3352C1098.58 17.1117 1110.87 14 1124.57 14C1138.17 14 1150.42 17.1117 1161.31 23.3352C1172.25 29.5085 1180.89 38.4924 1187.21 50.2869C1193.58 62.0814 1196.77 76.3854 1196.77 93.1989ZM1163.72 93.1989C1163.72 82.3078 1162.09 73.1231 1158.83 65.6449C1155.62 58.1667 1151.07 52.4953 1145.2 48.6307C1139.33 44.7661 1132.45 42.8338 1124.57 42.8338C1116.69 42.8338 1109.82 44.7661 1103.95 48.6307C1098.07 52.4953 1093.51 58.1667 1090.24 65.6449C1087.03 73.1231 1085.43 82.3078 1085.43 93.1989C1085.43 104.09 1087.03 113.275 1090.24 120.753C1093.51 128.231 1098.07 133.902 1103.95 137.767C1109.82 141.632 1116.69 143.564 1124.57 143.564C1132.45 143.564 1139.33 141.632 1145.2 137.767C1151.07 133.902 1155.62 128.231 1158.83 120.753C1162.09 113.275 1163.72 104.09 1163.72 93.1989Z" fill="white"/>
<path d="M1323.15 65.946C1322.1 62.2822 1320.62 59.045 1318.71 56.2344C1316.8 53.3736 1314.47 50.9645 1311.71 49.0071C1309 46.9995 1305.89 45.4688 1302.38 44.4148C1298.91 43.3608 1295.07 42.8338 1290.86 42.8338C1282.98 42.8338 1276.05 44.7912 1270.08 48.706C1264.16 52.6207 1259.54 58.3172 1256.23 65.7955C1252.91 73.2235 1251.26 82.3078 1251.26 93.0483C1251.26 103.789 1252.89 112.923 1256.15 120.452C1259.41 127.98 1264.03 133.727 1270 137.692C1275.98 141.607 1283.03 143.564 1291.16 143.564C1298.54 143.564 1304.83 142.259 1310.05 139.649C1315.32 136.989 1319.34 133.25 1322.1 128.432C1324.91 123.614 1326.32 117.917 1326.32 111.342L1332.94 112.321H1293.19V87.7784H1357.71V107.202C1357.71 120.753 1354.85 132.397 1349.13 142.134C1343.41 151.82 1335.53 159.298 1325.49 164.568C1315.45 169.788 1303.96 172.398 1291.01 172.398C1276.55 172.398 1263.85 169.211 1252.91 162.837C1241.97 156.412 1233.44 147.303 1227.32 135.509C1221.24 123.664 1218.21 109.611 1218.21 93.3494C1218.21 80.8523 1220.01 69.7102 1223.63 59.9233C1227.29 50.0862 1232.41 41.7547 1238.99 34.929C1245.56 28.1032 1253.21 22.9086 1261.95 19.3452C1270.68 15.7817 1280.14 14 1290.33 14C1299.06 14 1307.19 15.2798 1314.72 17.8395C1322.25 20.349 1328.93 23.9124 1334.75 28.5298C1340.62 33.1473 1345.41 38.643 1349.13 45.017C1352.84 51.3409 1355.22 58.3172 1356.28 65.946H1323.15Z" fill="white"/>
<path d="M1523.88 93.1989C1523.88 110.012 1520.69 124.316 1514.32 136.111C1507.99 147.905 1499.36 156.914 1488.42 163.138C1477.53 169.311 1465.28 172.398 1451.68 172.398C1437.98 172.398 1425.68 169.286 1414.79 163.062C1403.9 156.839 1395.29 147.83 1388.97 136.036C1382.65 124.241 1379.49 109.962 1379.49 93.1989C1379.49 76.3854 1382.65 62.0814 1388.97 50.2869C1395.29 38.4924 1403.9 29.5085 1414.79 23.3352C1425.68 17.1117 1437.98 14 1451.68 14C1465.28 14 1477.53 17.1117 1488.42 23.3352C1499.36 29.5085 1507.99 38.4924 1514.32 50.2869C1520.69 62.0814 1523.88 76.3854 1523.88 93.1989ZM1490.83 93.1989C1490.83 82.3078 1489.2 73.1231 1485.94 65.6449C1482.72 58.1667 1478.18 52.4953 1472.31 48.6307C1466.44 44.7661 1459.56 42.8338 1451.68 42.8338C1443.8 42.8338 1436.93 44.7661 1431.05 48.6307C1425.18 52.4953 1420.62 58.1667 1417.35 65.6449C1414.14 73.1231 1412.53 82.3078 1412.53 93.1989C1412.53 104.09 1414.14 113.275 1417.35 120.753C1420.62 128.231 1425.18 133.902 1431.05 137.767C1436.93 141.632 1443.8 143.564 1451.68 143.564C1459.56 143.564 1466.44 141.632 1472.31 137.767C1478.18 133.902 1482.72 128.231 1485.94 120.753C1489.2 113.275 1490.83 104.09 1490.83 93.1989Z" fill="white"/>
<path d="M22 170.29V16.108H54.598V79.723H120.773V16.108H153.295V170.29H120.773V106.599H54.598V170.29H22Z" stroke="black" stroke-width="4" mask="url(#path-1-outside-1_327_3)"/>
<path d="M180.172 170.29V16.108H284.064V42.9844H212.77V79.723H278.719V106.599H212.77V143.413H284.365V170.29H180.172Z" stroke="black" stroke-width="4" mask="url(#path-1-outside-1_327_3)"/>
<path d="M336.556 170.29H301.624L354.85 16.108H396.858L450.009 170.29H415.077L376.456 51.3409H375.252L336.556 170.29ZM334.373 109.686H416.884V135.132H334.373V109.686Z" stroke="black" stroke-width="4" mask="url(#path-1-outside-1_327_3)"/>
<path d="M523.223 170.29H468.566V16.108H523.674C539.183 16.108 552.533 19.1946 563.726 25.3679C574.918 31.491 583.525 40.2992 589.548 51.7926C595.621 63.286 598.657 77.0379 598.657 93.0483C598.657 109.109 595.621 122.911 589.548 134.455C583.525 145.998 574.868 154.857 563.575 161.03C552.333 167.203 538.882 170.29 523.223 170.29ZM501.164 142.359H521.868C531.504 142.359 539.61 140.653 546.184 137.24C552.809 133.777 557.778 128.432 561.091 121.205C564.453 113.927 566.135 104.542 566.135 93.0483C566.135 81.6553 564.453 72.3452 561.091 65.1179C557.778 57.8906 552.834 52.5706 546.26 49.1577C539.685 45.7448 531.579 44.0384 521.943 44.0384H501.164V142.359Z" stroke="black" stroke-width="4" mask="url(#path-1-outside-1_327_3)"/>
<path d="M622.805 170.29V16.108H726.697V42.9844H655.403V79.723H721.352V106.599H655.403V143.413H726.998V170.29H622.805Z" stroke="black" stroke-width="4" mask="url(#path-1-outside-1_327_3)"/>
<path d="M752.613 170.29V16.108H813.443C825.087 16.108 835.024 18.1908 843.255 22.3565C851.537 26.4721 857.835 32.3191 862.152 39.8977C866.518 47.4261 868.701 56.2846 868.701 66.473C868.701 76.7117 866.493 85.5199 862.076 92.8977C857.66 100.225 851.261 105.847 842.879 109.761C834.547 113.676 824.459 115.634 812.615 115.634H771.886V89.4347H807.345C813.568 89.4347 818.738 88.5814 822.853 86.875C826.969 85.1686 830.03 82.6089 832.038 79.196C834.096 75.7831 835.125 71.5421 835.125 66.473C835.125 61.3537 834.096 57.0374 832.038 53.5242C830.03 50.0109 826.944 47.3509 822.778 45.544C818.663 43.687 813.468 42.7585 807.194 42.7585H785.211V170.29H752.613ZM835.878 100.125L874.197 170.29H838.211L800.72 100.125H835.878Z" stroke="black" stroke-width="4" mask="url(#path-1-outside-1_327_3)"/>
<path d="M940.805 170.29V16.108H973.403V143.413H1039.5V170.29H940.805Z" stroke="black" stroke-width="4" mask="url(#path-1-outside-1_327_3)"/>
<path d="M1196.77 93.1989C1196.77 110.012 1193.58 124.316 1187.21 136.111C1180.89 147.905 1172.25 156.914 1161.31 163.138C1150.42 169.311 1138.17 172.398 1124.57 172.398C1110.87 172.398 1098.58 169.286 1087.68 163.062C1076.79 156.839 1068.19 147.83 1061.86 136.036C1055.54 124.241 1052.38 109.962 1052.38 93.1989C1052.38 76.3854 1055.54 62.0814 1061.86 50.2869C1068.19 38.4924 1076.79 29.5085 1087.68 23.3352C1098.58 17.1117 1110.87 14 1124.57 14C1138.17 14 1150.42 17.1117 1161.31 23.3352C1172.25 29.5085 1180.89 38.4924 1187.21 50.2869C1193.58 62.0814 1196.77 76.3854 1196.77 93.1989ZM1163.72 93.1989C1163.72 82.3078 1162.09 73.1231 1158.83 65.6449C1155.62 58.1667 1151.07 52.4953 1145.2 48.6307C1139.33 44.7661 1132.45 42.8338 1124.57 42.8338C1116.69 42.8338 1109.82 44.7661 1103.95 48.6307C1098.07 52.4953 1093.51 58.1667 1090.24 65.6449C1087.03 73.1231 1085.43 82.3078 1085.43 93.1989C1085.43 104.09 1087.03 113.275 1090.24 120.753C1093.51 128.231 1098.07 133.902 1103.95 137.767C1109.82 141.632 1116.69 143.564 1124.57 143.564C1132.45 143.564 1139.33 141.632 1145.2 137.767C1151.07 133.902 1155.62 128.231 1158.83 120.753C1162.09 113.275 1163.72 104.09 1163.72 93.1989Z" stroke="black" stroke-width="4" mask="url(#path-1-outside-1_327_3)"/>
<path d="M1323.15 65.946C1322.1 62.2822 1320.62 59.045 1318.71 56.2344C1316.8 53.3736 1314.47 50.9645 1311.71 49.0071C1309 46.9995 1305.89 45.4688 1302.38 44.4148C1298.91 43.3608 1295.07 42.8338 1290.86 42.8338C1282.98 42.8338 1276.05 44.7912 1270.08 48.706C1264.16 52.6207 1259.54 58.3172 1256.23 65.7955C1252.91 73.2235 1251.26 82.3078 1251.26 93.0483C1251.26 103.789 1252.89 112.923 1256.15 120.452C1259.41 127.98 1264.03 133.727 1270 137.692C1275.98 141.607 1283.03 143.564 1291.16 143.564C1298.54 143.564 1304.83 142.259 1310.05 139.649C1315.32 136.989 1319.34 133.25 1322.1 128.432C1324.91 123.614 1326.32 117.917 1326.32 111.342L1332.94 112.321H1293.19V87.7784H1357.71V107.202C1357.71 120.753 1354.85 132.397 1349.13 142.134C1343.41 151.82 1335.53 159.298 1325.49 164.568C1315.45 169.788 1303.96 172.398 1291.01 172.398C1276.55 172.398 1263.85 169.211 1252.91 162.837C1241.97 156.412 1233.44 147.303 1227.32 135.509C1221.24 123.664 1218.21 109.611 1218.21 93.3494C1218.21 80.8523 1220.01 69.7102 1223.63 59.9233C1227.29 50.0862 1232.41 41.7547 1238.99 34.929C1245.56 28.1032 1253.21 22.9086 1261.95 19.3452C1270.68 15.7817 1280.14 14 1290.33 14C1299.06 14 1307.19 15.2798 1314.72 17.8395C1322.25 20.349 1328.93 23.9124 1334.75 28.5298C1340.62 33.1473 1345.41 38.643 1349.13 45.017C1352.84 51.3409 1355.22 58.3172 1356.28 65.946H1323.15Z" stroke="black" stroke-width="4" mask="url(#path-1-outside-1_327_3)"/>
<path d="M1523.88 93.1989C1523.88 110.012 1520.69 124.316 1514.32 136.111C1507.99 147.905 1499.36 156.914 1488.42 163.138C1477.53 169.311 1465.28 172.398 1451.68 172.398C1437.98 172.398 1425.68 169.286 1414.79 163.062C1403.9 156.839 1395.29 147.83 1388.97 136.036C1382.65 124.241 1379.49 109.962 1379.49 93.1989C1379.49 76.3854 1382.65 62.0814 1388.97 50.2869C1395.29 38.4924 1403.9 29.5085 1414.79 23.3352C1425.68 17.1117 1437.98 14 1451.68 14C1465.28 14 1477.53 17.1117 1488.42 23.3352C1499.36 29.5085 1507.99 38.4924 1514.32 50.2869C1520.69 62.0814 1523.88 76.3854 1523.88 93.1989ZM1490.83 93.1989C1490.83 82.3078 1489.2 73.1231 1485.94 65.6449C1482.72 58.1667 1478.18 52.4953 1472.31 48.6307C1466.44 44.7661 1459.56 42.8338 1451.68 42.8338C1443.8 42.8338 1436.93 44.7661 1431.05 48.6307C1425.18 52.4953 1420.62 58.1667 1417.35 65.6449C1414.14 73.1231 1412.53 82.3078 1412.53 93.1989C1412.53 104.09 1414.14 113.275 1417.35 120.753C1420.62 128.231 1425.18 133.902 1431.05 137.767C1436.93 141.632 1443.8 143.564 1451.68 143.564C1459.56 143.564 1466.44 141.632 1472.31 137.767C1478.18 133.902 1482.72 128.231 1485.94 120.753C1489.2 113.275 1490.83 104.09 1490.83 93.1989Z" stroke="black" stroke-width="4" mask="url(#path-1-outside-1_327_3)"/>
</g>
</svg>